<?xml version="1.0" encoding="UTF-8" standalone="no"?>
<!-- Created with Inkscape (http://www.inkscape.org/) -->

<svg
   version="1.1"
   id="svg192"
   width="4013.0547"
   height="3284.6968"
   viewBox="0 0 4013.0547 3284.6968"
   sodipodi:docname="rudern_hebel_1.svg"
   inkscape:version="1.2.1 (9c6d41e410, 2022-07-14)"
   xmlns:inkscape="http://www.inkscape.org/namespaces/inkscape"
   xmlns:sodipodi="http://sodipodi.sourceforge.net/DTD/sodipodi-0.dtd"
   xmlns="http://www.w3.org/2000/svg"
   xmlns:svg="http://www.w3.org/2000/svg">
  <defs
     id="defs196" />
  <sodipodi:namedview
     id="namedview194"
     pagecolor="#ffffff"
     bordercolor="#000000"
     borderopacity="0.25"
     inkscape:showpageshadow="2"
     inkscape:pageopacity="0.0"
     inkscape:pagecheckerboard="0"
     inkscape:deskcolor="#d1d1d1"
     showgrid="false"
     inkscape:zoom="0.16633215"
     inkscape:cx="2425.869"
     inkscape:cy="2594.2069"
     inkscape:window-width="1920"
     inkscape:window-height="1131"
     inkscape:window-x="0"
     inkscape:window-y="0"
     inkscape:window-maximized="1"
     inkscape:current-layer="g198" />
  <g
     inkscape:groupmode="layer"
     inkscape:label="Image"
     id="g198"
     transform="translate(-1584.5264,-2798.171)">
    <g
       id="g18933">
      <rect
         style="fill:none;fill-opacity:0.318967;stroke:#141319;stroke-width:10;stroke-dasharray:none;stroke-opacity:1"
         id="rect713"
         width="859.69531"
         height="2163.1499"
         x="1764.3306"
         y="3432.6865" />
      <path
         style="fill:#daa49a;fill-opacity:0.318967;stroke:#0000eb;stroke-width:0.756"
         d="m 1827.608,4671.6504 -25.2862,250.6012"
         id="path369" />
      <path
         style="fill:#daa49a;fill-opacity:0.318967;stroke:#0000eb;stroke-width:0.756"
         d="m 1978.9483,5262.0216 122.6325,43.1994"
         id="path371" />
      <path
         style="fill:#daa49a;fill-opacity:0.318967;stroke:#0000eb;stroke-width:0.756"
         d="m 2069.4308,5135.2749 -0.02,-119.5672"
         id="path373" />
      <path
         style="fill:#daa49a;fill-opacity:0.318967;stroke:#0000eb;stroke-width:0.756"
         d="m 1869.1525,4437.0326 20.8614,40.3429"
         id="path431" />
      <path
         style="fill:#daa49a;fill-opacity:0.318967;stroke:#0000eb;stroke-width:0.756"
         d="m 1891.1595,4490.7314 10.2907,29.9657"
         id="path433" />
      <path
         style="fill:#daa49a;fill-opacity:0.318967;stroke:#0000eb;stroke-width:0.756"
         d="m 1914.0729,4551.2329 -3.3657,47.5173"
         id="path435" />
      <path
         style="fill:#c8daf0;fill-opacity:1;stroke:#0000eb;stroke-width:0.756"
         d="m 3106.2362,4243.2415 c -22.3431,-11.4873 -180.5168,-190.6343 -180.5168,-190.6343 l -304.636,-329.1229 -837.8535,12.6445 c -22.9834,-47.1048 -25.4402,-43.2004 -9.5763,-105.0397 l 886.4742,-7.8127 159.5484,155.6278 313.9338,369.985 c 0,0 139.619,77.7222 100.7577,70.8788 -38.8611,-6.8435 -128.1316,23.4735 -128.1315,23.4735 z"
         id="path589"
         sodipodi:nodetypes="ccccccccsc" />
      <path
         style="fill:#7a5b59;fill-opacity:1;stroke:#0000eb;stroke-width:0.756"
         d="m 2096.0561,4092.2422 c 0,0 -7.5665,48.4923 -9.2366,51.2929 -1.6701,2.8005 -28.0027,116.0742 -28.0027,116.0742 l -7.8466,67.1184 19.2574,89.8255 58.0728,-3.8928 87.1828,-32.8527 -8.5162,-103.0772 -26.0601,-121.4688 -21.699,-58.2129 -34.8895,-13.7353 z"
         id="path573" />
      <path
         style="fill:#141319;fill-opacity:1;stroke:#0000eb;stroke-width:0.756"
         d="m 1815.7898,4467.8995 313.3584,-56.1735 39.4874,48.5561 -343.8587,53.2711 2.6936,-22.0936 z"
         id="path537"
         sodipodi:nodetypes="cccccc" />
      <path
         style="fill:#7a5b59;fill-opacity:1;stroke:#0000eb;stroke-width:0.756"
         d="m 2250.6222,4555.4948 -41.7583,-52.9884 -38.9477,-30.1057 -33.1227,-44.7931 -6.1051,-27.6743 23.5371,-6.9479 29.5634,38.0846 -17.2054,-28.9192 0.5728,-12.4725 14.8402,-5.1021 11.4618,2.4976 20.7749,32.1857 -17.8902,-30.6811 5.7207,-7.7243 20.2298,3.7145 19.5452,27.6846 -18.1372,-29.6424 0.9319,-3.2766 12.1822,-3.712 16.7854,13.0046 7.126,12.5209 24.8967,27.6285 13.1778,53.4162 27.2949,36.7861 -25.635,-1.7006 -36.4222,24.2118 z"
         id="path539" />
      <path
         style="fill:#7a5b59;fill-opacity:1;stroke:#0000eb;stroke-width:0.756"
         d="m 1871.8461,4434.2219 22.8421,32.0228 1.1457,23.4022 17.7553,45.3736 -2.5663,16.8185 -0.5448,55.5471 -2.6478,50.6692 -35.5616,-5.5298 -38.7287,11.8742 -13.2388,-33.2498 5.0103,-26.5745 -37.2902,-61.054 -7.1872,-38.8076 9.7662,-10.4282 10.6265,19.6067 -13.6567,-30.7158 -1.523,-16.6775 8.7618,-12.7628 15.0735,10.4009 18.4201,39.4074 -14.5028,-44.1061 0.2423,-18.9761 11.3261,-7.4227 11.3343,19.2375 22.3699,37.6611 2.8552,-10.9491 -7.5359,-27.569 -3.4348,-9.7933 3.0865,-9.2541 z"
         id="path439"
         sodipodi:nodetypes="cccccccccccccccccccccccccccccc" />
      <path
         style="fill:#c8daf0;fill-opacity:1;stroke:#0000eb;stroke-width:0.756"
         d="m 1812.004,4795.067 7.3501,-110.3992 19.2752,-17.8241 -21.923,16.2329 -8.3787,136.1514 -2.2913,86.8671 25.0494,77.5644 60.1859,104.4903 86.1925,163.296 133.4348,60.5805 -36.1904,-103.1281 -10.8151,-91.0527 -0.6059,-90.3704 -8.4194,-22.9694 -10.8457,-7.5741 -13.0479,17.7426 -11.3854,-21.9103 -65.3235,-81.5513 -22.6334,-15.8739 -0.4786,-70.4765 -6.6805,-65.5807 -4.211,-82.8701 -13.272,-13.6232 -29.2425,-6.179 -39.1183,10.2346"
         id="path543" />
      <path
         style="fill:#c8daf0;fill-opacity:1;stroke:#0000eb;stroke-width:0.756"
         d="m 2252.1752,4587.6041 1.665,-35.1337 48.0494,-34.4058 23.7866,-0.2215 46.1119,63.8546 c 0,0 51.1376,53.7853 52.7339,58.0421 1.5963,4.2568 57.118,96.5418 57.118,96.5418 l 15.632,44.9484 28.5425,75.0388 30.1285,98.7974 6.6398,69.8757 -5.2522,54.9743 1.4104,56.9856 -38.2602,63.7934 -38.0745,37.3513 1.4309,-81.0879 -11.9507,-72.9614 -48.1283,-91.0043 -8.4117,-14.3209 -19.7259,-80.51 -21.2076,-42.3567 -6.7442,-64.0938 -18.127,-36.0096 -28.848,-55.6872 -20.953,-44.424 z"
         id="path545" />
      <path
         style="fill:#141319;fill-opacity:1;stroke:#0000eb;stroke-width:0.756"
         d="m 2252.3738,4824.2332 -15.2221,8.1522 -17.3836,48.4822 -25.052,41.4911 -20.3318,26.4369 -1.7287,61.8764 6.818,47.3925 38.2705,58.8645 37.5168,25.5051 36.1319,14.0918 32.733,-17.0654 60.8707,-33.4944 15.8357,-40.4574 5.097,-106.3639 -2.6096,-35.9283 -33.1149,-80.2502 -50.4833,-11.0391 -64.4223,-10.9018 z"
         id="path547" />
      <path
         style="fill:#7a5b59;fill-opacity:1;stroke:#0000eb;stroke-width:0.756"
         d="m 2230.6494,4838.4447 -29.1789,40.2563 -12.2689,25.6629 -10.199,24.278 -0.5448,13.799 44.7498,-61.6904 z"
         id="path549" />
      <path
         style="fill:#7a5b59;fill-opacity:1;stroke:#0000eb;stroke-width:0.756"
         d="m 2169.3103,4988.2932 -10.2016,19.7488 -2.77,23.4608 11.7953,-2.8286 0.7842,-9.0737 z"
         id="path551" />
      <path
         style="fill:#7a5b59;fill-opacity:1;stroke:#0000eb;stroke-width:0.756"
         d="m 2183.4402,5068.5282 2.2862,38.3799 26.1797,34.1384 50.3993,31.2004 41.1067,-9.1399 26.0958,-21.1262 1.5021,-4.4781 -34.0391,16.7573 -41.8856,-12.5057 -36.7583,-25.08 z"
         id="path553" />
      <path
         style="fill:#c8daf0;fill-opacity:1;stroke:#0000eb;stroke-width:0.756"
         d="m 2165.9623,4977.6129 -18.0074,32.5981 -19.0257,104.3145 6.9937,44.5615 14.6824,40.3861 41.9493,55.1321 29.8842,18.0456 27.2974,4.7354 96.0148,-5.9931 28.7868,-28.4202 19.8507,-43.2987 15.1176,-60.1273 -4.0073,-61.5988 -7.1464,-12.997 -14.718,40.9361 -39.3907,24.502 -13.9339,12.4675 -27.8423,22.091 -43.3164,7.9128 -49.4878,-34.3014 -30.3068,-29.1355 3.8342,-43.2682 -9.7688,-33.2956 -17.3123,-1.9121 2.0749,-18.3409 11.7775,-26.1519 z"
         id="path555" />
      <path
         style="fill:#141319;fill-opacity:1;stroke:#0000eb;stroke-width:0.756"
         d="m 2173.6815,4930.442 -35.3757,8.0171 -35.0243,7.6557 -42.5654,19.7284 -12.5159,23.7815 7.2101,14.4533 1.4893,31.0374 7.4418,30.1337 -0.5219,54.7248 2.7928,72.3121 24.66,64.0735 22.9414,57.1994 32.1883,58.5107 54.7808,13.6563 c 0,0 140.4157,5.6495 157.4481,-0.041 17.0322,-5.6902 108.6934,-50.2312 108.6934,-50.2312 l 16.4926,-94.2173 -1.7211,-92.2086 -10.9347,-68.9846 -67.4622,-132.279 c 0,0 0.013,50.5342 0.013,53.238 0,2.7038 -6.2656,64.6718 -6.2656,64.6718 l 14.1961,54.6739 -10.2729,52.0184 -28.2573,76.7574 -36.7709,25.747 -105.5161,0.3309 -46.5243,-25.3498 -38.1075,-64.2211 -23.4633,-65.8837 20.5787,-108.0264 21.9282,-37.4303 4.3483,-1.1711 3.8062,-38.8153"
         id="path557" />
      <path
         style="fill:#fb4d88;fill-opacity:1;stroke:#0000eb;stroke-width:0.756"
         d="m 2029.1389,5010.9519 -35.4318,-52.7848 -2.1437,-50.2414 2.1105,-38.2196 18.5752,-77.0068 15.9936,-48.5789 3.9665,-4.2517 -2.7446,24.9247 -11.1384,41.7634 -13.9746,55.4326 -1.1202,37.993 -3.4396,37.6059 2.7547,27.6514 v 8.147 l -8.6638,-14.5526 -2.5918,-21.7371"
         id="path559" />
      <path
         style="fill:#daa49a;fill-opacity:0.318967;stroke:#0000eb;stroke-width:0.756"
         d="m 2081.7022,4860.9965 26.5133,7.8135 -43.3267,18.0328"
         id="path561" />
      <path
         style="fill:#141319;fill-opacity:1;stroke:#0000eb;stroke-width:0.756"
         d="m 2035.4579,4734.5198 -2.854,23.5397 -21.1643,66.8383 c 0,0 -10.6064,63.9895 -10.6064,68.7835 0,4.794 1.7796,58.4062 1.7796,58.4062 l 18.2645,55.1653 8.6587,2.6452 2.5027,-7.7753 16.5867,-8.7835 13.5979,-31.2691 40.1009,-16.8592 67.7906,-10.5248 5.5526,-3.4498 29.5049,-57.3471 32.7177,-42.1988 21.4597,-13.6106 40.9691,8.2769 71.202,15.9069 5.7717,-11.4821 -8.31,-40.7909 -55.3766,-97.3973 -61.1787,10.6776 -10.9577,21.6735 -29.7339,22.1929 -92.644,-20.6118 -81.5385,5.0893 z"
         id="path563" />
      <path
         style="fill:#7a5b59;fill-opacity:1;stroke:#0000eb;stroke-width:0.756"
         d="m 2086.0201,4479.2722 c 0,0 -1.7185,45.0324 -1.7185,53.2354 0,8.203 -15.4462,91.6918 -15.4462,91.6918 l -32.0635,106.5599 80.5635,-3.0576 91.5288,16.2328 38.1915,-23.2367 4.1525,-20.65 -6.0263,-73.0352 0.8122,-74.1986 -34.1766,-48.607 -50.4909,-41.2364 -75.6702,11.4236 z"
         id="path565" />
      <path
         style="fill:#daa49a;fill-opacity:0.318967;stroke:#0000eb;stroke-width:0.756"
         d="m 2270.6307,4647.4335 -21.0523,-55.9926 z"
         id="path567" />
      <path
         style="fill:#7a5b59;fill-opacity:1;stroke:#0000eb;stroke-width:0.756"
         d="m 2251.3146,4595.1682 -0.7383,105.7223 63.8774,-7.9662 c 0,0 -6.0313,-29.1509 -14.8173,-39.9787 -8.786,-10.828 -48.3218,-57.7774 -48.3218,-57.7774 z"
         id="path569" />
      <path
         style="fill:#7a5b59;fill-opacity:1;stroke:#0000eb;stroke-width:0.756"
         d="m 2291.3596,4443.624 8.7632,38.9986 70.558,92.6007 43.9758,50.333 -7.6581,-89.3469 -8.4323,-63.8698 -7.3959,-39.2863 z"
         id="path571" />
      <path
         style="fill:#7a5b59;fill-opacity:1;stroke:#0000eb;stroke-width:0.756"
         d="m 2279.3353,4079.2783 -2.3321,73.3177 c 0,0 -23.863,115.3944 -22.7657,121.9298 1.0973,6.5354 9.122,97.0815 9.122,101.6794 0,4.598 -4.4147,19.1963 -4.4147,19.1963 0,0 67.098,-12.139 81.2535,-16.1157 14.1554,-3.9768 61.2294,-12.6424 61.2294,-12.6424 l 8.9186,-66.391 -6.6779,-69.0966 -36.5112,-102.8404 -23.2954,-52.3392 c 0,0 -22.3939,0.2444 -27.4375,-0.6543 -5.0435,-0.8988 -37.0891,3.9563 -37.089,3.9564 z"
         id="path575"
         sodipodi:nodetypes="ccsscscccccsc" />
      <path
         style="fill:#141319;fill-opacity:1;stroke:#0000eb;stroke-width:0.756"
         d="m 2258.3135,4395.5645 272.9545,-47.3747 573.3133,-97.2394 22.0427,69.4072 c 0,0 -252.088,49.05 -263.9622,49.05 -11.8743,0 -564.9678,77.9717 -564.9678,77.9717 z"
         id="path577"
         sodipodi:nodetypes="ccccscc" />
      <path
         style="fill:#c8daf0;fill-opacity:1;stroke:#0000eb;stroke-width:0.756"
         d="m 3285.8924,4304.8835 10.1787,57.8079 -113.7777,167.395 -247.8619,341.1804 -118.396,153.2855 -129.9291,156.0045 -59.9888,75.3618 4.7901,4.8102 216.6566,-260.0115 490.0206,-665.1095 -20.4234,-30.7344 z"
         id="path585"
         sodipodi:nodetypes="cccccccccccc" />
      <path
         style="fill:#c8daf0;fill-opacity:1;stroke:#0000eb;stroke-width:0.756"
         d="m 3260.5248,4348.8314 c 6.2222,0 56.0665,1.1661 36.2693,1.1661 -19.7972,0 -60.6645,-0.8861 -72.941,-3.5541 -12.2764,-2.6682 -42.4258,-34.9544 -42.4258,-34.9544 l 108.9205,-22.7263 0.3259,62.5281 z"
         id="path587"
         sodipodi:nodetypes="csscccc" />
      <path
         style="fill:#fb4d88;fill-opacity:1;stroke:#0000eb;stroke-width:0.756"
         d="m 3104.23,4241.1385 21.2177,79.7182 122.2047,-15.6116 -6.3088,-55.4657 -17.5109,-37.0484 z"
         id="path579" />
      <path
         style="fill:#141319;fill-opacity:1;stroke:#0000eb;stroke-width:0.756"
         d="m 3221.3785,4200.1998 25.775,83.1807 1.7873,25.1589 24.67,3.9564 -3.5999,-42.8734 -18.2543,-65.9805 z"
         id="path583" />
      <path
         style="fill:#141319;fill-opacity:1;stroke:#0000eb;stroke-width:0.756"
         d="m 3430.4495,4215.5202 1773.4939,-298.784 -0.6625,42.7353 -1763.1608,303.1568 z"
         id="path591"
         sodipodi:nodetypes="ccccc" />
      <path
         style="fill:#fb4d88;fill-opacity:1;stroke:#0000eb;stroke-width:0.756"
         d="m 3252.7953,4210.353 15.8848,82.6733 27.7525,-2.8837 141.5385,-24.2475 -7.6683,-49.9512 -7.7346,-17.5211 -28.9422,-5.3261 -97.7282,19.3083 -34.1053,-0.3157 z"
         id="path581"
         sodipodi:nodetypes="cccccccccc" />
      <path
         style="fill:#141319;fill-opacity:1;stroke:#0000eb;stroke-width:0.756"
         d="m 2082.2623,4087.858 -19.0028,-92.6414 21.3671,-56.4025 79.1904,10.5222 14.5389,136.6042"
         id="path653"
         sodipodi:nodetypes="ccccc" />
      <path
         style="fill:#141319;fill-opacity:1;stroke:#0000eb;stroke-width:0.756"
         d="m 2275.0504,4063.4783 -3.3323,-86.8425 4.7094,-41.9563 60.1225,-20.8104 38.0973,30.7142 -15.9512,132.4125 z"
         id="path655"
         sodipodi:nodetypes="ccccccc" />
      <g
         id="g18593"
         transform="matrix(0.62590463,0,-0.92326059,1.0022824,5548.3587,-9.0805341)">
        <path
           style="fill:#fb4d88;fill-opacity:1;stroke:#0000eb;stroke-width:0.756"
           d="m 5198.0154,3917.6818 41.3336,214.5172 502.355,-81.155 -29.9849,-231.5548 z"
           id="path593" />
        <path
           style="fill:#fb4d88;fill-opacity:1;stroke:#141319;stroke-width:30;stroke-dasharray:none;stroke-opacity:1"
           d="m 5242.5488,4127.9561 217.6977,-241.7015 c 90.1148,56.3969 159.6538,97.8588 274.5073,157.3451"
           id="path10617"
           sodipodi:nodetypes="ccc" />
      </g>
      <path
         style="fill:#fb4d88;fill-opacity:1;stroke:#141319;stroke-width:4.64602;stroke-dasharray:none;stroke-opacity:1"
         d="m 2248.095,5324.412 33.7142,37.4316 c 13.9559,-8.734 26.2851,-21.2257 44.0722,-30.4382"
         id="path10625"
         sodipodi:nodetypes="ccc" />
    </g>
    <g
       id="g19017">
      <rect
         style="fill:none;fill-opacity:0.318967;stroke:#141319;stroke-width:10;stroke-dasharray:none;stroke-opacity:1"
         id="rect18935"
         width="859.69531"
         height="2163.1499"
         x="1764.3306"
         y="3432.6865" />
      <path
         style="fill:#daa49a;fill-opacity:0.318967;stroke:#0000eb;stroke-width:0.756"
         d="m 1827.608,4671.6504 -25.2862,250.6012"
         id="path18937" />
      <path
         style="fill:#daa49a;fill-opacity:0.318967;stroke:#0000eb;stroke-width:0.756"
         d="m 1978.9483,5262.0216 122.6325,43.1994"
         id="path18939" />
      <path
         style="fill:#daa49a;fill-opacity:0.318967;stroke:#0000eb;stroke-width:0.756"
         d="m 2069.4308,5135.2749 -0.02,-119.5672"
         id="path18941" />
      <path
         style="fill:#daa49a;fill-opacity:0.318967;stroke:#0000eb;stroke-width:0.756"
         d="m 1869.1525,4437.0326 20.8614,40.3429"
         id="path18943" />
      <path
         style="fill:#daa49a;fill-opacity:0.318967;stroke:#0000eb;stroke-width:0.756"
         d="m 1891.1595,4490.7314 10.2907,29.9657"
         id="path18945" />
      <path
         style="fill:#daa49a;fill-opacity:0.318967;stroke:#0000eb;stroke-width:0.756"
         d="m 1914.0729,4551.2329 -3.3657,47.5173"
         id="path18947" />
      <path
         style="fill:#c8daf0;fill-opacity:1;stroke:#0000eb;stroke-width:0.756"
         d="m 3106.2362,4243.2415 c -22.3431,-11.4873 -180.5168,-190.6343 -180.5168,-190.6343 l -304.636,-329.1229 -837.8535,12.6445 c -22.9834,-47.1048 -25.4402,-43.2004 -9.5763,-105.0397 l 886.4742,-7.8127 159.5484,155.6278 313.9338,369.985 c 0,0 139.619,77.7222 100.7577,70.8788 -38.8611,-6.8435 -128.1316,23.4735 -128.1315,23.4735 z"
         id="path18949"
         sodipodi:nodetypes="ccccccccsc" />
      <path
         style="fill:#7a5b59;fill-opacity:1;stroke:#0000eb;stroke-width:0.756"
         d="m 2096.0561,4092.2422 c 0,0 -7.5665,48.4923 -9.2366,51.2929 -1.6701,2.8005 -28.0027,116.0742 -28.0027,116.0742 l -7.8466,67.1184 19.2574,89.8255 58.0728,-3.8928 87.1828,-32.8527 -8.5162,-103.0772 -26.0601,-121.4688 -21.699,-58.2129 -34.8895,-13.7353 z"
         id="path18951" />
      <path
         style="fill:#141319;fill-opacity:1;stroke:#0000eb;stroke-width:0.756"
         d="m 1815.7898,4467.8995 313.3584,-56.1735 39.4874,48.5561 -343.8587,53.2711 2.6936,-22.0936 z"
         id="path18953"
         sodipodi:nodetypes="cccccc" />
      <path
         style="fill:#7a5b59;fill-opacity:1;stroke:#0000eb;stroke-width:0.756"
         d="m 2250.6222,4555.4948 -41.7583,-52.9884 -38.9477,-30.1057 -33.1227,-44.7931 -6.1051,-27.6743 23.5371,-6.9479 29.5634,38.0846 -17.2054,-28.9192 0.5728,-12.4725 14.8402,-5.1021 11.4618,2.4976 20.7749,32.1857 -17.8902,-30.6811 5.7207,-7.7243 20.2298,3.7145 19.5452,27.6846 -18.1372,-29.6424 0.9319,-3.2766 12.1822,-3.712 16.7854,13.0046 7.126,12.5209 24.8967,27.6285 13.1778,53.4162 27.2949,36.7861 -25.635,-1.7006 -36.4222,24.2118 z"
         id="path18955" />
      <path
         style="fill:#7a5b59;fill-opacity:1;stroke:#0000eb;stroke-width:0.756"
         d="m 1871.8461,4434.2219 22.8421,32.0228 1.1457,23.4022 17.7553,45.3736 -2.5663,16.8185 -0.5448,55.5471 -2.6478,50.6692 -35.5616,-5.5298 -38.7287,11.8742 -13.2388,-33.2498 5.0103,-26.5745 -37.2902,-61.054 -7.1872,-38.8076 9.7662,-10.4282 10.6265,19.6067 -13.6567,-30.7158 -1.523,-16.6775 8.7618,-12.7628 15.0735,10.4009 18.4201,39.4074 -14.5028,-44.1061 0.2423,-18.9761 11.3261,-7.4227 11.3343,19.2375 22.3699,37.6611 2.8552,-10.9491 -7.5359,-27.569 -3.4348,-9.7933 3.0865,-9.2541 z"
         id="path18957"
         sodipodi:nodetypes="cccccccccccccccccccccccccccccc" />
      <path
         style="fill:#c8daf0;fill-opacity:1;stroke:#0000eb;stroke-width:0.756"
         d="m 1812.004,4795.067 7.3501,-110.3992 19.2752,-17.8241 -21.923,16.2329 -8.3787,136.1514 -2.2913,86.8671 25.0494,77.5644 60.1859,104.4903 86.1925,163.296 133.4348,60.5805 -36.1904,-103.1281 -10.8151,-91.0527 -0.6059,-90.3704 -8.4194,-22.9694 -10.8457,-7.5741 -13.0479,17.7426 -11.3854,-21.9103 -65.3235,-81.5513 -22.6334,-15.8739 -0.4786,-70.4765 -6.6805,-65.5807 -4.211,-82.8701 -13.272,-13.6232 -29.2425,-6.179 -39.1183,10.2346"
         id="path18959" />
      <path
         style="fill:#c8daf0;fill-opacity:1;stroke:#0000eb;stroke-width:0.756"
         d="m 2252.1752,4587.6041 1.665,-35.1337 48.0494,-34.4058 23.7866,-0.2215 46.1119,63.8546 c 0,0 51.1376,53.7853 52.7339,58.0421 1.5963,4.2568 57.118,96.5418 57.118,96.5418 l 15.632,44.9484 28.5425,75.0388 30.1285,98.7974 6.6398,69.8757 -5.2522,54.9743 1.4104,56.9856 -38.2602,63.7934 -38.0745,37.3513 1.4309,-81.0879 -11.9507,-72.9614 -48.1283,-91.0043 -8.4117,-14.3209 -19.7259,-80.51 -21.2076,-42.3567 -6.7442,-64.0938 -18.127,-36.0096 -28.848,-55.6872 -20.953,-44.424 z"
         id="path18961" />
      <path
         style="fill:#141319;fill-opacity:1;stroke:#0000eb;stroke-width:0.756"
         d="m 2252.3738,4824.2332 -15.2221,8.1522 -17.3836,48.4822 -25.052,41.4911 -20.3318,26.4369 -1.7287,61.8764 6.818,47.3925 38.2705,58.8645 37.5168,25.5051 36.1319,14.0918 32.733,-17.0654 60.8707,-33.4944 15.8357,-40.4574 5.097,-106.3639 -2.6096,-35.9283 -33.1149,-80.2502 -50.4833,-11.0391 -64.4223,-10.9018 z"
         id="path18963" />
      <path
         style="fill:#7a5b59;fill-opacity:1;stroke:#0000eb;stroke-width:0.756"
         d="m 2230.6494,4838.4447 -29.1789,40.2563 -12.2689,25.6629 -10.199,24.278 -0.5448,13.799 44.7498,-61.6904 z"
         id="path18965" />
      <path
         style="fill:#7a5b59;fill-opacity:1;stroke:#0000eb;stroke-width:0.756"
         d="m 2169.3103,4988.2932 -10.2016,19.7488 -2.77,23.4608 11.7953,-2.8286 0.7842,-9.0737 z"
         id="path18967" />
      <path
         style="fill:#7a5b59;fill-opacity:1;stroke:#0000eb;stroke-width:0.756"
         d="m 2183.4402,5068.5282 2.2862,38.3799 26.1797,34.1384 50.3993,31.2004 41.1067,-9.1399 26.0958,-21.1262 1.5021,-4.4781 -34.0391,16.7573 -41.8856,-12.5057 -36.7583,-25.08 z"
         id="path18969" />
      <path
         style="fill:#c8daf0;fill-opacity:1;stroke:#0000eb;stroke-width:0.756"
         d="m 2165.9623,4977.6129 -18.0074,32.5981 -19.0257,104.3145 6.9937,44.5615 14.6824,40.3861 41.9493,55.1321 29.8842,18.0456 27.2974,4.7354 96.0148,-5.9931 28.7868,-28.4202 19.8507,-43.2987 15.1176,-60.1273 -4.0073,-61.5988 -7.1464,-12.997 -14.718,40.9361 -39.3907,24.502 -13.9339,12.4675 -27.8423,22.091 -43.3164,7.9128 -49.4878,-34.3014 -30.3068,-29.1355 3.8342,-43.2682 -9.7688,-33.2956 -17.3123,-1.9121 2.0749,-18.3409 11.7775,-26.1519 z"
         id="path18971" />
      <path
         style="fill:#141319;fill-opacity:1;stroke:#0000eb;stroke-width:0.756"
         d="m 2173.6815,4930.442 -35.3757,8.0171 -35.0243,7.6557 -42.5654,19.7284 -12.5159,23.7815 7.2101,14.4533 1.4893,31.0374 7.4418,30.1337 -0.5219,54.7248 2.7928,72.3121 24.66,64.0735 22.9414,57.1994 32.1883,58.5107 54.7808,13.6563 c 0,0 140.4157,5.6495 157.4481,-0.041 17.0322,-5.6902 108.6934,-50.2312 108.6934,-50.2312 l 16.4926,-94.2173 -1.7211,-92.2086 -10.9347,-68.9846 -67.4622,-132.279 c 0,0 0.013,50.5342 0.013,53.238 0,2.7038 -6.2656,64.6718 -6.2656,64.6718 l 14.1961,54.6739 -10.2729,52.0184 -28.2573,76.7574 -36.7709,25.747 -105.5161,0.3309 -46.5243,-25.3498 -38.1075,-64.2211 -23.4633,-65.8837 20.5787,-108.0264 21.9282,-37.4303 4.3483,-1.1711 3.8062,-38.8153"
         id="path18973" />
      <path
         style="fill:#fb4d88;fill-opacity:1;stroke:#0000eb;stroke-width:0.756"
         d="m 2029.1389,5010.9519 -35.4318,-52.7848 -2.1437,-50.2414 2.1105,-38.2196 18.5752,-77.0068 15.9936,-48.5789 3.9665,-4.2517 -2.7446,24.9247 -11.1384,41.7634 -13.9746,55.4326 -1.1202,37.993 -3.4396,37.6059 2.7547,27.6514 v 8.147 l -8.6638,-14.5526 -2.5918,-21.7371"
         id="path18975" />
      <path
         style="fill:#daa49a;fill-opacity:0.318967;stroke:#0000eb;stroke-width:0.756"
         d="m 2081.7022,4860.9965 26.5133,7.8135 -43.3267,18.0328"
         id="path18977" />
      <path
         style="fill:#141319;fill-opacity:1;stroke:#0000eb;stroke-width:0.756"
         d="m 2035.4579,4734.5198 -2.854,23.5397 -21.1643,66.8383 c 0,0 -10.6064,63.9895 -10.6064,68.7835 0,4.794 1.7796,58.4062 1.7796,58.4062 l 18.2645,55.1653 8.6587,2.6452 2.5027,-7.7753 16.5867,-8.7835 13.5979,-31.2691 40.1009,-16.8592 67.7906,-10.5248 5.5526,-3.4498 29.5049,-57.3471 32.7177,-42.1988 21.4597,-13.6106 40.9691,8.2769 71.202,15.9069 5.7717,-11.4821 -8.31,-40.7909 -55.3766,-97.3973 -61.1787,10.6776 -10.9577,21.6735 -29.7339,22.1929 -92.644,-20.6118 -81.5385,5.0893 z"
         id="path18979" />
      <path
         style="fill:#7a5b59;fill-opacity:1;stroke:#0000eb;stroke-width:0.756"
         d="m 2086.0201,4479.2722 c 0,0 -1.7185,45.0324 -1.7185,53.2354 0,8.203 -15.4462,91.6918 -15.4462,91.6918 l -32.0635,106.5599 80.5635,-3.0576 91.5288,16.2328 38.1915,-23.2367 4.1525,-20.65 -6.0263,-73.0352 0.8122,-74.1986 -34.1766,-48.607 -50.4909,-41.2364 -75.6702,11.4236 z"
         id="path18981" />
      <path
         style="fill:#daa49a;fill-opacity:0.318967;stroke:#0000eb;stroke-width:0.756"
         d="m 2270.6307,4647.4335 -21.0523,-55.9926 z"
         id="path18983" />
      <path
         style="fill:#7a5b59;fill-opacity:1;stroke:#0000eb;stroke-width:0.756"
         d="m 2251.3146,4595.1682 -0.7383,105.7223 63.8774,-7.9662 c 0,0 -6.0313,-29.1509 -14.8173,-39.9787 -8.786,-10.828 -48.3218,-57.7774 -48.3218,-57.7774 z"
         id="path18985" />
      <path
         style="fill:#7a5b59;fill-opacity:1;stroke:#0000eb;stroke-width:0.756"
         d="m 2291.3596,4443.624 8.7632,38.9986 70.558,92.6007 43.9758,50.333 -7.6581,-89.3469 -8.4323,-63.8698 -7.3959,-39.2863 z"
         id="path18987" />
      <path
         style="fill:#7a5b59;fill-opacity:1;stroke:#0000eb;stroke-width:0.756"
         d="m 2279.3353,4079.2783 -2.3321,73.3177 c 0,0 -23.863,115.3944 -22.7657,121.9298 1.0973,6.5354 9.122,97.0815 9.122,101.6794 0,4.598 -4.4147,19.1963 -4.4147,19.1963 0,0 67.098,-12.139 81.2535,-16.1157 14.1554,-3.9768 61.2294,-12.6424 61.2294,-12.6424 l 8.9186,-66.391 -6.6779,-69.0966 -36.5112,-102.8404 -23.2954,-52.3392 c 0,0 -22.3939,0.2444 -27.4375,-0.6543 -5.0435,-0.8988 -37.0891,3.9563 -37.089,3.9564 z"
         id="path18989"
         sodipodi:nodetypes="ccsscscccccsc" />
      <path
         style="fill:#141319;fill-opacity:1;stroke:#0000eb;stroke-width:0.756"
         d="m 2258.3135,4395.5645 272.9545,-47.3747 573.3133,-97.2394 22.0427,69.4072 c 0,0 -252.088,49.05 -263.9622,49.05 -11.8743,0 -564.9678,77.9717 -564.9678,77.9717 z"
         id="path18991"
         sodipodi:nodetypes="ccccscc" />
      <path
         style="fill:#c8daf0;fill-opacity:1;stroke:#0000eb;stroke-width:0.756"
         d="m 3285.8924,4304.8835 10.1787,57.8079 -113.7777,167.395 -247.8619,341.1804 -118.396,153.2855 -129.9291,156.0045 -59.9888,75.3618 4.7901,4.8102 216.6566,-260.0115 490.0206,-665.1095 -20.4234,-30.7344 z"
         id="path18993"
         sodipodi:nodetypes="cccccccccccc" />
      <path
         style="fill:#c8daf0;fill-opacity:1;stroke:#0000eb;stroke-width:0.756"
         d="m 3260.5248,4348.8314 c 6.2222,0 56.0665,1.1661 36.2693,1.1661 -19.7972,0 -60.6645,-0.8861 -72.941,-3.5541 -12.2764,-2.6682 -42.4258,-34.9544 -42.4258,-34.9544 l 108.9205,-22.7263 0.3259,62.5281 z"
         id="path18995"
         sodipodi:nodetypes="csscccc" />
      <path
         style="fill:#fb4d88;fill-opacity:1;stroke:#0000eb;stroke-width:0.756"
         d="m 3104.23,4241.1385 21.2177,79.7182 122.2047,-15.6116 -6.3088,-55.4657 -17.5109,-37.0484 z"
         id="path18997" />
      <path
         style="fill:#141319;fill-opacity:1;stroke:#0000eb;stroke-width:0.756"
         d="m 3221.3785,4200.1998 25.775,83.1807 1.7873,25.1589 24.67,3.9564 -3.5999,-42.8734 -18.2543,-65.9805 z"
         id="path18999" />
      <path
         style="fill:#141319;fill-opacity:1;stroke:#0000eb;stroke-width:0.756"
         d="m 3430.4495,4215.5202 1773.4939,-298.784 -0.6625,42.7353 -1763.1608,303.1568 z"
         id="path19001"
         sodipodi:nodetypes="ccccc" />
      <path
         style="fill:#fb4d88;fill-opacity:1;stroke:#0000eb;stroke-width:0.756"
         d="m 3252.7953,4210.353 15.8848,82.6733 27.7525,-2.8837 141.5385,-24.2475 -7.6683,-49.9512 -7.7346,-17.5211 -28.9422,-5.3261 -97.7282,19.3083 -34.1053,-0.3157 z"
         id="path19003"
         sodipodi:nodetypes="cccccccccc" />
      <path
         style="fill:#141319;fill-opacity:1;stroke:#0000eb;stroke-width:0.756"
         d="m 2082.2623,4087.858 -19.0028,-92.6414 21.3671,-56.4025 79.1904,10.5222 14.5389,136.6042"
         id="path19005"
         sodipodi:nodetypes="ccccc" />
      <path
         style="fill:#141319;fill-opacity:1;stroke:#0000eb;stroke-width:0.756"
         d="m 2275.0504,4063.4783 -3.3323,-86.8425 4.7094,-41.9563 60.1225,-20.8104 38.0973,30.7142 -15.9512,132.4125 z"
         id="path19007"
         sodipodi:nodetypes="ccccccc" />
      <g
         id="g19013"
         transform="matrix(0.62590463,0,-0.92326059,1.0022824,5548.3587,-9.0805341)">
        <path
           style="fill:#fb4d88;fill-opacity:1;stroke:#0000eb;stroke-width:0.756"
           d="m 5198.0154,3917.6818 41.3336,214.5172 502.355,-81.155 -29.9849,-231.5548 z"
           id="path19009" />
        <path
           style="fill:#fb4d88;fill-opacity:1;stroke:#141319;stroke-width:30;stroke-dasharray:none;stroke-opacity:1"
           d="m 5242.5488,4127.9561 217.6977,-241.7015 c 90.1148,56.3969 159.6538,97.8588 274.5073,157.3451"
           id="path19011"
           sodipodi:nodetypes="ccc" />
      </g>
      <path
         style="fill:#fb4d88;fill-opacity:1;stroke:#141319;stroke-width:4.64602;stroke-dasharray:none;stroke-opacity:1"
         d="m 2248.095,5324.412 33.7142,37.4316 c 13.9559,-8.734 26.2851,-21.2257 44.0722,-30.4382"
         id="path19015"
         sodipodi:nodetypes="ccc" />
    </g>
  </g>
</svg>
