<?xml version="1.0" encoding="UTF-8" standalone="no"?>
<!-- Created with Inkscape (http://www.inkscape.org/) -->

<svg
   version="1.1"
   id="svg192"
   width="4013.0547"
   height="3284.6968"
   viewBox="0 0 4013.0547 3284.6968"
   sodipodi:docname="rudern_hebel_5.svg"
   inkscape:version="1.2.1 (9c6d41e410, 2022-07-14)"
   inkscape:export-filename="rudern_hebel_5.png"
   inkscape:export-xdpi="300"
   inkscape:export-ydpi="300"
   xmlns:inkscape="http://www.inkscape.org/namespaces/inkscape"
   xmlns:sodipodi="http://sodipodi.sourceforge.net/DTD/sodipodi-0.dtd"
   xmlns="http://www.w3.org/2000/svg"
   xmlns:svg="http://www.w3.org/2000/svg">
  <defs
     id="defs196">
    <marker
       style="overflow:visible"
       id="marker27121"
       refX="0"
       refY="0"
       orient="auto-start-reverse"
       inkscape:stockid="TriangleStart"
       markerWidth="5.3244081"
       markerHeight="6.155385"
       viewBox="0 0 5.3244081 6.1553851"
       inkscape:isstock="true"
       inkscape:collect="always"
       preserveAspectRatio="xMidYMid">
      <path
         transform="scale(0.5)"
         style="fill:context-stroke;fill-rule:evenodd;stroke:context-stroke;stroke-width:1pt"
         d="M 5.77,0 -2.88,5 V -5 Z"
         id="path27119" />
    </marker>
    <marker
       style="overflow:visible"
       id="TriangleStart"
       refX="0"
       refY="0"
       orient="auto-start-reverse"
       inkscape:stockid="TriangleStart"
       markerWidth="5.3244081"
       markerHeight="6.155385"
       viewBox="0 0 5.3244081 6.1553851"
       inkscape:isstock="true"
       inkscape:collect="always"
       preserveAspectRatio="xMidYMid">
      <path
         transform="scale(0.5)"
         style="fill:context-stroke;fill-rule:evenodd;stroke:context-stroke;stroke-width:1pt"
         d="M 5.77,0 -2.88,5 V -5 Z"
         id="path135" />
    </marker>
  </defs>
  <sodipodi:namedview
     id="namedview194"
     pagecolor="#ffffff"
     bordercolor="#000000"
     borderopacity="0.25"
     inkscape:showpageshadow="2"
     inkscape:pageopacity="0.0"
     inkscape:pagecheckerboard="0"
     inkscape:deskcolor="#d1d1d1"
     showgrid="false"
     inkscape:zoom="0.21167647"
     inkscape:cx="1729.0538"
     inkscape:cy="1887.3141"
     inkscape:window-width="1920"
     inkscape:window-height="1131"
     inkscape:window-x="0"
     inkscape:window-y="0"
     inkscape:window-maximized="1"
     inkscape:current-layer="g198"
     showguides="false" />
  <g
     inkscape:groupmode="layer"
     inkscape:label="Image"
     id="g198"
     transform="translate(-1584.5264,-2798.171)">
    <g
       id="g19017"
       transform="translate(-5.478,-7.2222)">
      <rect
         style="fill:none;fill-opacity:0.318967;stroke:#141319;stroke-width:10;stroke-dasharray:none;stroke-opacity:1"
         id="rect18935"
         width="859.69531"
         height="2163.1499"
         x="1764.3306"
         y="3432.6865" />
      <path
         style="fill:#daa49a;fill-opacity:0.318967;stroke:#0000eb;stroke-width:0.756"
         d="m 1827.608,4671.6504 -25.2862,250.6012"
         id="path18937" />
      <path
         style="fill:#daa49a;fill-opacity:0.318967;stroke:#0000eb;stroke-width:0.756"
         d="m 1978.9483,5262.0216 122.6325,43.1994"
         id="path18939" />
      <path
         style="fill:#daa49a;fill-opacity:0.318967;stroke:#0000eb;stroke-width:0.756"
         d="m 2069.4308,5135.2749 -0.02,-119.5672"
         id="path18941" />
      <path
         style="fill:#daa49a;fill-opacity:0.318967;stroke:#0000eb;stroke-width:0.756"
         d="m 1869.1525,4437.0326 20.8614,40.3429"
         id="path18943" />
      <path
         style="fill:#daa49a;fill-opacity:0.318967;stroke:#0000eb;stroke-width:0.756"
         d="m 1891.1595,4490.7314 10.2907,29.9657"
         id="path18945" />
      <path
         style="fill:#daa49a;fill-opacity:0.318967;stroke:#0000eb;stroke-width:0.756"
         d="m 1914.0729,4551.2329 -3.3657,47.5173"
         id="path18947" />
      <path
         style="fill:#c8daf0;fill-opacity:1;stroke:#0000eb;stroke-width:0.756"
         d="m 3106.2362,4243.2415 c -22.3431,-11.4873 -180.5168,-190.6343 -180.5168,-190.6343 l -304.636,-329.1229 -837.8535,12.6445 c -22.9834,-47.1048 -25.4402,-43.2004 -9.5763,-105.0397 l 886.4742,-7.8127 159.5484,155.6278 313.9338,369.985 c 0,0 139.619,77.7222 100.7577,70.8788 -38.8611,-6.8435 -128.1316,23.4735 -128.1315,23.4735 z"
         id="path18949"
         sodipodi:nodetypes="ccccccccsc" />
      <path
         style="fill:#7a5b59;fill-opacity:1;stroke:#0000eb;stroke-width:0.756"
         d="m 2096.0561,4092.2422 c 0,0 -7.5665,48.4923 -9.2366,51.2929 -1.6701,2.8005 -28.0027,116.0742 -28.0027,116.0742 l -7.8466,67.1184 19.2574,89.8255 58.0728,-3.8928 87.1828,-32.8527 -8.5162,-103.0772 -26.0601,-121.4688 -21.699,-58.2129 -34.8895,-13.7353 z"
         id="path18951" />
      <path
         style="fill:#141319;fill-opacity:1;stroke:#0000eb;stroke-width:0.756"
         d="m 1815.7898,4467.8995 313.3584,-56.1735 39.4874,48.5561 -343.8587,53.2711 2.6936,-22.0936 z"
         id="path18953"
         sodipodi:nodetypes="cccccc" />
      <path
         style="fill:#7a5b59;fill-opacity:1;stroke:#0000eb;stroke-width:0.756"
         d="m 2250.6222,4555.4948 -41.7583,-52.9884 -38.9477,-30.1057 -33.1227,-44.7931 -6.1051,-27.6743 23.5371,-6.9479 29.5634,38.0846 -17.2054,-28.9192 0.5728,-12.4725 14.8402,-5.1021 11.4618,2.4976 20.7749,32.1857 -17.8902,-30.6811 5.7207,-7.7243 20.2298,3.7145 19.5452,27.6846 -18.1372,-29.6424 0.9319,-3.2766 12.1822,-3.712 16.7854,13.0046 7.126,12.5209 24.8967,27.6285 13.1778,53.4162 27.2949,36.7861 -25.635,-1.7006 -36.4222,24.2118 z"
         id="path18955" />
      <path
         style="fill:#7a5b59;fill-opacity:1;stroke:#0000eb;stroke-width:0.756"
         d="m 1871.8461,4434.2219 22.8421,32.0228 1.1457,23.4022 17.7553,45.3736 -2.5663,16.8185 -0.5448,55.5471 -2.6478,50.6692 -35.5616,-5.5298 -38.7287,11.8742 -13.2388,-33.2498 5.0103,-26.5745 -37.2902,-61.054 -7.1872,-38.8076 9.7662,-10.4282 10.6265,19.6067 -13.6567,-30.7158 -1.523,-16.6775 8.7618,-12.7628 15.0735,10.4009 18.4201,39.4074 -14.5028,-44.1061 0.2423,-18.9761 11.3261,-7.4227 11.3343,19.2375 22.3699,37.6611 2.8552,-10.9491 -7.5359,-27.569 -3.4348,-9.7933 3.0865,-9.2541 z"
         id="path18957"
         sodipodi:nodetypes="cccccccccccccccccccccccccccccc" />
      <path
         style="fill:#c8daf0;fill-opacity:1;stroke:#0000eb;stroke-width:0.756"
         d="m 1812.004,4795.067 7.3501,-110.3992 19.2752,-17.8241 -21.923,16.2329 -8.3787,136.1514 -2.2913,86.8671 25.0494,77.5644 60.1859,104.4903 86.1925,163.296 133.4348,60.5805 -36.1904,-103.1281 -10.8151,-91.0527 -0.6059,-90.3704 -8.4194,-22.9694 -10.8457,-7.5741 -13.0479,17.7426 -11.3854,-21.9103 -65.3235,-81.5513 -22.6334,-15.8739 -0.4786,-70.4765 -6.6805,-65.5807 -4.211,-82.8701 -13.272,-13.6232 -29.2425,-6.179 -39.1183,10.2346"
         id="path18959" />
      <path
         style="fill:#c8daf0;fill-opacity:1;stroke:#0000eb;stroke-width:0.756"
         d="m 2252.1752,4587.6041 1.665,-35.1337 48.0494,-34.4058 23.7866,-0.2215 46.1119,63.8546 c 0,0 51.1376,53.7853 52.7339,58.0421 1.5963,4.2568 57.118,96.5418 57.118,96.5418 l 15.632,44.9484 28.5425,75.0388 30.1285,98.7974 6.6398,69.8757 -5.2522,54.9743 1.4104,56.9856 -38.2602,63.7934 -38.0745,37.3513 1.4309,-81.0879 -11.9507,-72.9614 -48.1283,-91.0043 -8.4117,-14.3209 -19.7259,-80.51 -21.2076,-42.3567 -6.7442,-64.0938 -18.127,-36.0096 -28.848,-55.6872 -20.953,-44.424 z"
         id="path18961" />
      <path
         style="fill:#141319;fill-opacity:1;stroke:#0000eb;stroke-width:0.756"
         d="m 2252.3738,4824.2332 -15.2221,8.1522 -17.3836,48.4822 -25.052,41.4911 -20.3318,26.4369 -1.7287,61.8764 6.818,47.3925 38.2705,58.8645 37.5168,25.5051 36.1319,14.0918 32.733,-17.0654 60.8707,-33.4944 15.8357,-40.4574 5.097,-106.3639 -2.6096,-35.9283 -33.1149,-80.2502 -50.4833,-11.0391 -64.4223,-10.9018 z"
         id="path18963" />
      <path
         style="fill:#7a5b59;fill-opacity:1;stroke:#0000eb;stroke-width:0.756"
         d="m 2230.6494,4838.4447 -29.1789,40.2563 -12.2689,25.6629 -10.199,24.278 -0.5448,13.799 44.7498,-61.6904 z"
         id="path18965" />
      <path
         style="fill:#7a5b59;fill-opacity:1;stroke:#0000eb;stroke-width:0.756"
         d="m 2169.3103,4988.2932 -10.2016,19.7488 -2.77,23.4608 11.7953,-2.8286 0.7842,-9.0737 z"
         id="path18967" />
      <path
         style="fill:#7a5b59;fill-opacity:1;stroke:#0000eb;stroke-width:0.756"
         d="m 2183.4402,5068.5282 2.2862,38.3799 26.1797,34.1384 50.3993,31.2004 41.1067,-9.1399 26.0958,-21.1262 1.5021,-4.4781 -34.0391,16.7573 -41.8856,-12.5057 -36.7583,-25.08 z"
         id="path18969" />
      <path
         style="fill:#c8daf0;fill-opacity:1;stroke:#0000eb;stroke-width:0.756"
         d="m 2165.9623,4977.6129 -18.0074,32.5981 -19.0257,104.3145 6.9937,44.5615 14.6824,40.3861 41.9493,55.1321 29.8842,18.0456 27.2974,4.7354 96.0148,-5.9931 28.7868,-28.4202 19.8507,-43.2987 15.1176,-60.1273 -4.0073,-61.5988 -7.1464,-12.997 -14.718,40.9361 -39.3907,24.502 -13.9339,12.4675 -27.8423,22.091 -43.3164,7.9128 -49.4878,-34.3014 -30.3068,-29.1355 3.8342,-43.2682 -9.7688,-33.2956 -17.3123,-1.9121 2.0749,-18.3409 11.7775,-26.1519 z"
         id="path18971" />
      <path
         style="fill:#141319;fill-opacity:1;stroke:#0000eb;stroke-width:0.756"
         d="m 2173.6815,4930.442 -35.3757,8.0171 -35.0243,7.6557 -42.5654,19.7284 -12.5159,23.7815 7.2101,14.4533 1.4893,31.0374 7.4418,30.1337 -0.5219,54.7248 2.7928,72.3121 24.66,64.0735 22.9414,57.1994 32.1883,58.5107 54.7808,13.6563 c 0,0 140.4157,5.6495 157.4481,-0.041 17.0322,-5.6902 108.6934,-50.2312 108.6934,-50.2312 l 16.4926,-94.2173 -1.7211,-92.2086 -10.9347,-68.9846 -67.4622,-132.279 c 0,0 0.013,50.5342 0.013,53.238 0,2.7038 -6.2656,64.6718 -6.2656,64.6718 l 14.1961,54.6739 -10.2729,52.0184 -28.2573,76.7574 -36.7709,25.747 -105.5161,0.3309 -46.5243,-25.3498 -38.1075,-64.2211 -23.4633,-65.8837 20.5787,-108.0264 21.9282,-37.4303 4.3483,-1.1711 3.8062,-38.8153"
         id="path18973" />
      <path
         style="fill:#fb4d88;fill-opacity:1;stroke:#0000eb;stroke-width:0.756"
         d="m 2029.1389,5010.9519 -35.4318,-52.7848 -2.1437,-50.2414 2.1105,-38.2196 18.5752,-77.0068 15.9936,-48.5789 3.9665,-4.2517 -2.7446,24.9247 -11.1384,41.7634 -13.9746,55.4326 -1.1202,37.993 -3.4396,37.6059 2.7547,27.6514 v 8.147 l -8.6638,-14.5526 -2.5918,-21.7371"
         id="path18975" />
      <path
         style="fill:#daa49a;fill-opacity:0.318967;stroke:#0000eb;stroke-width:0.756"
         d="m 2081.7022,4860.9965 26.5133,7.8135 -43.3267,18.0328"
         id="path18977" />
      <path
         style="fill:#141319;fill-opacity:1;stroke:#0000eb;stroke-width:0.756"
         d="m 2035.4579,4734.5198 -2.854,23.5397 -21.1643,66.8383 c 0,0 -10.6064,63.9895 -10.6064,68.7835 0,4.794 1.7796,58.4062 1.7796,58.4062 l 18.2645,55.1653 8.6587,2.6452 2.5027,-7.7753 16.5867,-8.7835 13.5979,-31.2691 40.1009,-16.8592 67.7906,-10.5248 5.5526,-3.4498 29.5049,-57.3471 32.7177,-42.1988 21.4597,-13.6106 40.9691,8.2769 71.202,15.9069 5.7717,-11.4821 -8.31,-40.7909 -55.3766,-97.3973 -61.1787,10.6776 -10.9577,21.6735 -29.7339,22.1929 -92.644,-20.6118 -81.5385,5.0893 z"
         id="path18979" />
      <path
         style="fill:#7a5b59;fill-opacity:1;stroke:#0000eb;stroke-width:0.756"
         d="m 2086.0201,4479.2722 c 0,0 -1.7185,45.0324 -1.7185,53.2354 0,8.203 -15.4462,91.6918 -15.4462,91.6918 l -32.0635,106.5599 80.5635,-3.0576 91.5288,16.2328 38.1915,-23.2367 4.1525,-20.65 -6.0263,-73.0352 0.8122,-74.1986 -34.1766,-48.607 -50.4909,-41.2364 -75.6702,11.4236 z"
         id="path18981" />
      <path
         style="fill:#daa49a;fill-opacity:0.318967;stroke:#0000eb;stroke-width:0.756"
         d="m 2270.6307,4647.4335 -21.0523,-55.9926 z"
         id="path18983" />
      <path
         style="fill:#7a5b59;fill-opacity:1;stroke:#0000eb;stroke-width:0.756"
         d="m 2251.3146,4595.1682 -0.7383,105.7223 63.8774,-7.9662 c 0,0 -6.0313,-29.1509 -14.8173,-39.9787 -8.786,-10.828 -48.3218,-57.7774 -48.3218,-57.7774 z"
         id="path18985" />
      <path
         style="fill:#7a5b59;fill-opacity:1;stroke:#0000eb;stroke-width:0.756"
         d="m 2291.3596,4443.624 8.7632,38.9986 70.558,92.6007 43.9758,50.333 -7.6581,-89.3469 -8.4323,-63.8698 -7.3959,-39.2863 z"
         id="path18987" />
      <path
         style="fill:#7a5b59;fill-opacity:1;stroke:#0000eb;stroke-width:0.756"
         d="m 2279.3353,4079.2783 -2.3321,73.3177 c 0,0 -23.863,115.3944 -22.7657,121.9298 1.0973,6.5354 9.122,97.0815 9.122,101.6794 0,4.598 -4.4147,19.1963 -4.4147,19.1963 0,0 67.098,-12.139 81.2535,-16.1157 14.1554,-3.9768 61.2294,-12.6424 61.2294,-12.6424 l 8.9186,-66.391 -6.6779,-69.0966 -36.5112,-102.8404 -23.2954,-52.3392 c 0,0 -22.3939,0.2444 -27.4375,-0.6543 -5.0435,-0.8988 -37.0891,3.9563 -37.089,3.9564 z"
         id="path18989"
         sodipodi:nodetypes="ccsscscccccsc" />
      <path
         style="fill:#141319;fill-opacity:1;stroke:#0000eb;stroke-width:0.756"
         d="m 2258.3135,4395.5645 272.9545,-47.3747 573.3133,-97.2394 22.0427,69.4072 c 0,0 -252.088,49.05 -263.9622,49.05 -11.8743,0 -564.9678,77.9717 -564.9678,77.9717 z"
         id="path18991"
         sodipodi:nodetypes="ccccscc" />
      <path
         style="fill:#c8daf0;fill-opacity:1;stroke:#0000eb;stroke-width:0.756"
         d="m 3285.8924,4304.8835 10.1787,57.8079 -113.7777,167.395 -247.8619,341.1804 -118.396,153.2855 -129.9291,156.0045 -59.9888,75.3618 4.7901,4.8102 216.6566,-260.0115 490.0206,-665.1095 -20.4234,-30.7344 z"
         id="path18993"
         sodipodi:nodetypes="cccccccccccc" />
      <path
         style="fill:#c8daf0;fill-opacity:1;stroke:#0000eb;stroke-width:0.756"
         d="m 3260.5248,4348.8314 c 6.2222,0 56.0665,1.1661 36.2693,1.1661 -19.7972,0 -60.6645,-0.8861 -72.941,-3.5541 -12.2764,-2.6682 -42.4258,-34.9544 -42.4258,-34.9544 l 108.9205,-22.7263 0.3259,62.5281 z"
         id="path18995"
         sodipodi:nodetypes="csscccc" />
      <path
         style="fill:#fb4d88;fill-opacity:1;stroke:#0000eb;stroke-width:0.756"
         d="m 3104.23,4241.1385 21.2177,79.7182 122.2047,-15.6116 -6.3088,-55.4657 -17.5109,-37.0484 z"
         id="path18997" />
      <path
         style="fill:#141319;fill-opacity:1;stroke:#0000eb;stroke-width:0.756"
         d="m 3221.3785,4200.1998 25.775,83.1807 1.7873,25.1589 24.67,3.9564 -3.5999,-42.8734 -18.2543,-65.9805 z"
         id="path18999" />
      <path
         style="fill:#141319;fill-opacity:1;stroke:#0000eb;stroke-width:0.756"
         d="m 3430.4495,4215.5202 1773.4939,-298.784 -0.6625,42.7353 -1763.1608,303.1568 z"
         id="path19001"
         sodipodi:nodetypes="ccccc" />
      <path
         style="fill:#fb4d88;fill-opacity:1;stroke:#0000eb;stroke-width:0.756"
         d="m 3252.7953,4210.353 15.8848,82.6733 27.7525,-2.8837 141.5385,-24.2475 -7.6683,-49.9512 -7.7346,-17.5211 -28.9422,-5.3261 -97.7282,19.3083 -34.1053,-0.3157 z"
         id="path19003"
         sodipodi:nodetypes="cccccccccc" />
      <path
         style="fill:#141319;fill-opacity:1;stroke:#0000eb;stroke-width:0.756"
         d="m 2082.2623,4087.858 -19.0028,-92.6414 21.3671,-56.4025 79.1904,10.5222 14.5389,136.6042"
         id="path19005"
         sodipodi:nodetypes="ccccc" />
      <path
         style="fill:#141319;fill-opacity:1;stroke:#0000eb;stroke-width:0.756"
         d="m 2275.0504,4063.4783 -3.3323,-86.8425 4.7094,-41.9563 60.1225,-20.8104 38.0973,30.7142 -15.9512,132.4125 z"
         id="path19007"
         sodipodi:nodetypes="ccccccc" />
      <g
         id="g19013"
         transform="matrix(0.62590463,0,-0.92326059,1.0022824,5548.3587,-9.0805341)">
        <path
           style="fill:#fb4d88;fill-opacity:1;stroke:#0000eb;stroke-width:0.756"
           d="m 5198.0154,3917.6818 41.3336,214.5172 502.355,-81.155 -29.9849,-231.5548 z"
           id="path19009" />
        <path
           style="fill:#fb4d88;fill-opacity:1;stroke:#141319;stroke-width:30;stroke-dasharray:none;stroke-opacity:1"
           d="m 5242.5488,4127.9561 217.6977,-241.7015 c 90.1148,56.3969 159.6538,97.8588 274.5073,157.3451"
           id="path19011"
           sodipodi:nodetypes="ccc" />
      </g>
      <path
         style="fill:#fb4d88;fill-opacity:1;stroke:#141319;stroke-width:4.64602;stroke-dasharray:none;stroke-opacity:1"
         d="m 2248.095,5324.412 33.7142,37.4316 c 13.9559,-8.734 26.2851,-21.2257 44.0722,-30.4382"
         id="path19015"
         sodipodi:nodetypes="ccc" />
    </g>
    <rect
       style="fill:#ffffff;fill-opacity:0.8;stroke:none;stroke-width:10.087;stroke-dasharray:none;stroke-opacity:1"
       id="rect25997"
       width="3825.4871"
       height="2200.6521"
       x="1760.0459"
       y="3379.1658" />
    <rect
       style="fill:none;fill-opacity:0.318967;stroke:#141319;stroke-width:10;stroke-dasharray:none;stroke-opacity:1"
       id="rect19367"
       width="859.69531"
       height="2163.1499"
       x="-381.74698"
       y="4411.376"
       transform="rotate(-26.006994)" />
    <path
       style="fill:#daa49a;fill-opacity:0.318967;stroke:#0000eb;stroke-width:0.756"
       d="m 2191.3444,5217.8324 87.1581,236.3129"
       id="path19369" />
    <path
       style="fill:#daa49a;fill-opacity:0.318967;stroke:#0000eb;stroke-width:0.756"
       d="m 2586.2266,5682.0631 129.1569,-14.947"
       id="path19371" />
    <path
       style="fill:#daa49a;fill-opacity:0.318967;stroke:#0000eb;stroke-width:0.756"
       d="m 2611.9708,5528.4758 -52.4459,-107.4511"
       id="path19373" />
    <path
       style="fill:#daa49a;fill-opacity:0.318967;stroke:#0000eb;stroke-width:0.756"
       d="m 2125.8067,4988.7554 36.4386,27.1104"
       id="path19375" />
    <path
       style="fill:#daa49a;fill-opacity:0.318967;stroke:#0000eb;stroke-width:0.756"
       d="m 2169.1312,5027.367 22.3881,22.4191"
       id="path19377" />
    <path
       style="fill:#daa49a;fill-opacity:0.318967;stroke:#0000eb;stroke-width:0.756"
       d="m 2216.2532,5071.6951 17.8105,44.1815"
       id="path19379" />
    <path
       style="fill:#c8daf0;fill-opacity:1;stroke:#0000eb;stroke-width:0.756"
       d="m 3152.6503,4272.1499 c -25.1176,-0.5271 -245.8272,-92.1776 -245.8272,-92.1776 l -418.1029,-162.219 -747.4685,378.7468 c -41.3107,-32.2572 -41.8067,-27.6709 -54.6645,-90.2044 l 793.2846,-395.7235 211.6324,69.9101 444.3764,194.8665 c 0,0 159.5609,8.6318 121.634,19.5213 -37.9268,10.8893 -104.8644,77.2799 -104.8643,77.2798 z"
       id="path19381"
       sodipodi:nodetypes="ccccccccsc" />
    <path
       style="fill:#7a5b59;fill-opacity:1;stroke:#0000eb;stroke-width:0.756"
       d="m 2178.5502,4579.3854 c 0,0 14.4626,46.8997 14.1897,50.1491 -0.2731,3.2492 25.7291,116.5992 25.7291,116.5992 l 22.3781,63.7626 56.6942,72.2858 50.4854,-28.9624 63.9495,-67.7541 -52.8513,-88.9054 -76.683,-97.7421 -45.027,-42.8037 -37.3793,2.9539 z"
       id="path19383" />
    <path
       style="fill:#141319;fill-opacity:1;stroke:#0000eb;stroke-width:0.756"
       d="m 2091.3821,5039.8952 256.9969,-187.887 56.7798,26.3248 -285.6814,198.6524 -7.2668,-21.0375 z"
       id="path19385"
       sodipodi:nodetypes="cccccc" />
    <path
       style="fill:#7a5b59;fill-opacity:1;stroke:#0000eb;stroke-width:0.756"
       d="m 2520.5924,4927.955 -60.7643,-29.3126 -48.2046,-9.9794 -49.4096,-25.7337 -17.6216,-22.1951 18.1072,-16.5649 43.2692,21.2652 -28.1437,-18.4466 -4.9541,-11.4607 11.1003,-11.0926 11.3963,-2.7811 32.7841,19.8172 -29.5317,-19.7299 1.7544,-9.4505 19.8101,-5.532 29.7052,16.311 -29.2982,-18.688 -0.5992,-3.3534 9.321,-8.6778 20.788,4.3277 11.8946,8.1284 34.4902,13.9142 35.2654,42.229 40.661,21.0929 -23.7848,9.7121 -22.1177,37.7305 z"
       id="path19387" />
    <path
       style="fill:#7a5b59;fill-opacity:1;stroke:#0000eb;stroke-width:0.756"
       d="m 2126.9951,4985.0482 34.5706,18.7643 11.2911,20.5302 35.8528,32.9937 5.0682,16.2408 23.8667,50.1613 19.8378,46.6994 -34.3854,10.6233 -29.6004,27.6536 -26.4777,-24.078 -7.1494,-26.0805 -60.2853,-38.5207 -23.4758,-31.7265 4.2047,-13.6545 18.1477,12.9618 -25.7422,-21.6173 -8.6815,-14.321 2.2783,-15.3123 18.1078,2.7383 33.8343,27.3401 -32.374,-33.2807 -8.1028,-17.1608 6.9245,-11.6374 18.6218,12.3197 36.6184,24.0387 -2.2348,-11.0923 -18.8613,-21.473 -7.3812,-7.2956 -1.2838,-9.6704 z"
       id="path19389"
       sodipodi:nodetypes="cccccccccccccccccccccccccccccc" />
    <path
       style="fill:#c8daf0;fill-opacity:1;stroke:#0000eb;stroke-width:0.756"
       d="m 2231.4363,5335.5939 -41.8021,-102.4431 9.5079,-24.471 -12.5853,24.2019 52.1695,126.0387 36.0303,79.0757 56.5234,58.7266 99.9085,67.5193 149.0669,108.9669 146.4866,-4.0624 -77.7455,-76.8166 -49.6448,-77.0905 -40.1702,-80.9539 -17.6385,-16.9518 -13.0686,-2.0515 -3.9469,21.6672 -19.8398,-14.6994 -94.4675,-44.6503 -27.302,-4.3422 -31.3327,-63.1303 -34.7599,-56.0107 -40.1216,-72.6323 -17.9016,-6.4242 -28.9908,7.269 -30.6695,26.3508"
       id="path19391" />
    <path
       style="fill:#c8daf0;fill-opacity:1;stroke:#0000eb;stroke-width:0.756"
       d="m 2536.0675,4956.132 -13.9091,-32.3062 28.0977,-51.9906 21.2808,-10.6291 69.4417,37.1696 c 0,0 69.5433,25.9161 72.8444,29.0419 3.3012,3.1259 93.666,61.7209 93.666,61.7209 l 33.7582,33.5426 58.5553,54.9251 70.3985,75.5825 36.6066,59.8887 19.3848,51.7106 26.2547,50.5968 -6.4138,74.1101 -17.8413,50.2641 -34.2694,-73.5044 -42.7328,-60.3333 -83.1585,-60.6859 -13.8394,-9.1824 -53.0305,-63.7081 -37.6328,-28.7686 -34.1652,-54.6465 -32.0809,-24.4149 -50.3447,-37.3991 -38.3104,-30.7381 z"
       id="path19393" />
    <path
       style="fill:#141319;fill-opacity:1;stroke:#0000eb;stroke-width:0.756"
       d="m 2640.0033,5168.713 -10.1061,14.0013 5.6351,51.1953 -4.3222,48.2746 -6.6809,32.675 25.578,56.3688 26.9083,39.604 60.2062,36.1231 44.9014,6.472 38.6521,-3.1782 21.9357,-29.6902 40.0203,-56.7934 -3.5076,-43.3044 -42.0577,-97.8284 -18.0992,-31.146 -64.9499,-57.6039 -50.2118,12.2147 -62.6792,18.4501 z"
       id="path19395" />
    <path
       style="fill:#7a5b59;fill-opacity:1;stroke:#0000eb;stroke-width:0.756"
       d="m 2626.7102,5191.0112 -8.5727,48.9744 0.2262,28.4439 1.4791,26.2917 5.561,12.6406 13.1684,-75.0656 z"
       id="path19397" />
    <path
       style="fill:#7a5b59;fill-opacity:1;stroke:#0000eb;stroke-width:0.756"
       d="m 2637.2879,5352.5822 -0.5091,22.2222 7.7976,22.2998 9.3606,-7.7142 -3.2738,-8.4988 z"
       id="path19399" />
    <path
       style="fill:#7a5b59;fill-opacity:1;stroke:#0000eb;stroke-width:0.756"
       d="m 2685.1686,5418.4969 18.8835,33.4911 38.4978,19.2023 58.9767,5.9419 32.9366,-26.2389 14.1899,-30.4294 -0.6136,-4.6833 -23.2445,29.9859 -43.1278,7.1267 -44.0333,-6.4226 z"
       id="path19401" />
    <path
       style="fill:#c8daf0;fill-opacity:1;stroke:#0000eb;stroke-width:0.756"
       d="m 2629.5958,5344.4514 -1.8903,37.1931 28.6408,102.0941 25.8248,36.9826 30.9042,29.8587 61.8759,31.1555 34.7708,3.1146 26.6097,-7.7135 83.6645,-47.4869 13.4102,-38.1648 -1.145,-47.6185 -12.7779,-60.6676 -30.6114,-53.6042 -12.1217,-8.5474 4.722,43.2445 -24.6583,39.293 -7.0562,17.3148 -15.3366,32.0624 -35.4606,26.105 -59.5172,-9.1286 -40.0133,-12.8963 -15.5263,-40.5681 -23.3791,-25.6407 -16.3977,5.8726 -6.1773,-17.3935 -0.8822,-28.668 z"
       id="path19403" />
    <path
       style="fill:#141319;fill-opacity:1;stroke:#0000eb;stroke-width:0.756"
       d="m 2615.8499,5298.6723 -28.2783,22.7168 -28.1208,22.238 -29.6048,36.3948 -0.8208,26.8614 12.8175,9.8283 14.9478,27.2415 19.9013,23.8193 23.5267,49.4122 34.2175,63.7653 50.258,46.7725 45.6992,41.348 54.5847,38.472 55.2218,-11.7468 c 0,0 128.6745,-56.4922 141.487,-69.0749 12.8125,-12.5823 75.6617,-92.8048 75.6617,-92.8048 l -26.4899,-91.9086 -41.9785,-82.1169 -40.0759,-57.2046 -118.6328,-89.3036 c 0,0 22.1699,45.4114 23.3555,47.8414 1.1856,2.4301 22.7262,60.8705 22.7262,60.8705 l 36.7321,42.913 13.5764,51.2555 8.2606,81.3753 -21.7579,39.2632 -94.6865,46.5642 -52.9287,-2.3829 -62.4084,-41.0087 -49.9762,-48.9242 -28.8726,-106.111 3.2953,-43.2553 3.3945,-2.9591 -13.599,-36.5538"
       id="path19405" />
    <path
       style="fill:#fb4d88;fill-opacity:1;stroke:#0000eb;stroke-width:0.756"
       d="m 2521.2456,5434.4089 -54.9891,-31.9036 -23.9565,-44.2141 -14.8618,-35.2749 -17.0717,-77.354 -6.9268,-50.6727 1.7005,-5.5604 8.4624,23.6043 8.3019,42.4184 11.7466,55.9471 15.6524,34.6371 13.3982,35.3061 14.6003,23.6436 3.5723,7.322 -14.1675,-9.2801 -11.8607,-18.3995"
       id="path19407" />
    <path
       style="fill:#daa49a;fill-opacity:0.318967;stroke:#0000eb;stroke-width:0.756"
       d="m 2502.7338,5276.5899 27.2547,-4.6032 -31.0325,35.2047"
       id="path19409" />
    <path
       style="fill:#141319;fill-opacity:1;stroke:#0000eb;stroke-width:0.756"
       d="m 2405.7146,5183.1974 7.7567,22.4075 10.2861,69.3505 c 0,0 18.5258,62.1606 20.6278,66.4692 2.1021,4.3086 27.2094,51.7117 27.2094,51.7117 l 40.604,41.5706 8.9418,-1.4193 -1.16,-8.0853 11.0557,-15.1671 -1.4899,-34.0652 28.6479,-32.7355 56.3112,-39.184 3.4777,-5.5352 1.3716,-64.4775 10.9014,-52.2718 13.3187,-21.6421 40.4498,-10.5254 70.967,-16.9245 0.1526,-12.8502 -25.3546,-33.0167 -92.476,-63.2533 -50.3019,36.4221 -0.3447,24.2836 -16.9919,32.9834 -92.3008,22.098 -71.0504,40.327 z"
       id="path19411" />
    <path
       style="fill:#7a5b59;fill-opacity:1;stroke:#0000eb;stroke-width:0.756"
       d="m 2339.2357,4931.6255 c 0,0 18.2014,41.226 21.7982,48.5984 3.5969,7.3723 26.323,89.18 26.323,89.18 l 17.9077,109.8289 71.065,-38.0736 89.3784,-25.5445 24.1354,-37.63 -5.3226,-20.3798 -37.4406,-62.9973 -31.8047,-67.0414 -52.0292,-28.6993 -63.4596,-14.9215 -62.9988,43.4468 z"
       id="path19413" />
    <path
       style="fill:#daa49a;fill-opacity:0.318967;stroke:#0000eb;stroke-width:0.756"
       d="m 2578.8882,5001.8107 -43.4722,-41.0918 z"
       id="path19415" />
    <path
       style="fill:#7a5b59;fill-opacity:1;stroke:#0000eb;stroke-width:0.756"
       d="m 2538.6107,4963.3075 45.6937,95.3406 53.9162,-35.1685 c 0,0 -18.2027,-23.5545 -30.8468,-29.4334 -12.6442,-5.8791 -68.7631,-30.7387 -68.7631,-30.7387 z"
       id="path19417" />
    <path
       style="fill:#7a5b59;fill-opacity:1;stroke:#0000eb;stroke-width:0.756"
       d="m 2508.1516,4809.5496 24.976,31.2071 104.0169,52.2857 61.5929,25.9537 -46.0595,-76.9417 -35.5842,-53.705 -23.8733,-32.0652 z"
       id="path19419" />
    <path
       style="fill:#7a5b59;fill-opacity:1;stroke:#0000eb;stroke-width:0.756"
       d="m 2337.5862,4487.3698 30.0525,66.9161 c 0,0 29.1516,114.1731 33.0034,119.5656 3.8518,5.3925 50.7667,83.2513 52.7828,87.3836 2.0161,4.1324 4.4495,19.1882 4.4495,19.1882 0,0 54.981,-40.331 65.9594,-50.1119 10.9783,-9.781 49.4859,-38.2101 49.4859,-38.2101 l -21.0957,-63.579 -36.2992,-59.1718 -77.9076,-76.4173 -43.8863,-36.8248 c 0,0 -20.0191,10.039 -24.9461,11.4428 -4.9269,1.4037 -31.5987,19.8185 -31.5986,19.8186 z"
       id="path19421"
       sodipodi:nodetypes="ccsscscccccsc" />
    <path
       style="fill:#141319;fill-opacity:1;stroke:#0000eb;stroke-width:0.756"
       d="m 2457.3785,4780.8467 224.5424,-162.2629 472.6223,-338.7799 50.2444,52.7137 c 0,0 -205.0542,154.619 -215.7261,159.8256 -10.6719,5.2067 -473.5703,317.8039 -473.5703,317.8039 z"
       id="path19423"
       sodipodi:nodetypes="ccccscc" />
    <path
       style="fill:#c8daf0;fill-opacity:1;stroke:#0000eb;stroke-width:0.756"
       d="m 3341.1435,4248.7743 34.4956,47.4911 -28.8571,200.334 -73.1625,415.3154 -39.1945,189.6783 -48.3676,197.1789 -20.8696,94.0347 6.4142,2.2227 80.708,-328.6826 148.7636,-812.6255 -31.8318,-18.667 z"
       id="path19425"
       sodipodi:nodetypes="cccccccccccc" />
    <path
       style="fill:#c8daf0;fill-opacity:1;stroke:#0000eb;stroke-width:0.756"
       d="m 3337.6149,4299.3953 c 5.5921,-2.7284 50.9005,-23.5361 33.108,-14.8554 -17.7926,8.6807 -54.9102,25.8038 -67.1135,28.789 -12.2032,2.9849 -53.4566,-12.812 -53.4566,-12.812 l 87.9262,-68.1846 27.7103,56.0536 z"
       id="path19427"
       sodipodi:nodetypes="csscccc" />
    <path
       style="fill:#fb4d88;fill-opacity:1;stroke:#0000eb;stroke-width:0.756"
       d="m 3149.9251,4271.1396 54.0241,62.3424 102.985,-67.6152 -29.9907,-47.083 -31.9827,-25.6187 z"
       id="path19429" />
    <path
       style="fill:#141319;fill-opacity:1;stroke:#0000eb;stroke-width:0.756"
       d="m 3237.2604,4182.9789 59.6382,63.456 12.638,21.8277 23.9067,-7.2616 -22.0345,-36.9536 -45.3371,-51.2951 z"
       id="path19431" />
    <path
       style="fill:#141319;fill-opacity:1;stroke:#0000eb;stroke-width:0.756"
       d="m 3431.8787,4105.0743 1462.8998,-1046.1724 18.1432,38.6985 -1451.6957,1045.5715 z"
       id="path19433"
       sodipodi:nodetypes="ccccc" />
    <path
       style="fill:#fb4d88;fill-opacity:1;stroke:#0000eb;stroke-width:0.756"
       d="m 3269.9479,4178.3283 50.527,67.3367 23.6779,-14.7606 116.5743,-83.8542 -28.7945,-41.5307 -14.634,-12.3555 -28.347,7.9038 -79.3659,60.2051 -30.7903,14.6708 z"
       id="path19435"
       sodipodi:nodetypes="cccccccccc" />
    <path
       style="fill:#141319;fill-opacity:1;stroke:#0000eb;stroke-width:0.756"
       d="m 2164.2308,4581.4934 -57.7001,-74.9282 -5.5279,-60.0603 75.7854,-25.2667 72.965,116.3967"
       id="path19437"
       sodipodi:nodetypes="ccccc" />
    <path
       style="fill:#141319;fill-opacity:1;stroke:#0000eb;stroke-width:0.756"
       d="m 2326.8072,4475.0485 -41.0736,-76.5877 -14.1645,-39.7728 44.9095,-45.0657 47.7072,10.8991 43.7244,125.9988 z"
       id="path19439"
       sodipodi:nodetypes="ccccccc" />
    <g
       id="g19445"
       transform="matrix(0.56252586,-0.2744472,-0.39029006,1.3056239,3482.923,-620.40819)">
      <path
         style="fill:#fb4d88;fill-opacity:1;stroke:#0000eb;stroke-width:0.756"
         d="m 5198.0154,3917.6818 41.3336,214.5172 502.355,-81.155 -29.9849,-231.5548 z"
         id="path19441" />
      <path
         style="fill:#fb4d88;fill-opacity:1;stroke:#141319;stroke-width:30;stroke-dasharray:none;stroke-opacity:1"
         d="m 5242.5488,4127.9561 217.6977,-241.7015 c 90.1148,56.3969 159.6538,97.8588 274.5073,157.3451"
         id="path19443"
         sodipodi:nodetypes="ccc" />
    </g>
    <path
       style="fill:#fb4d88;fill-opacity:1;stroke:#141319;stroke-width:4.64602;stroke-dasharray:none;stroke-opacity:1"
       d="m 2855.4766,5620.1202 46.7134,18.8582 c 8.713,-13.969 14.3164,-30.6019 26.2629,-46.6808"
       id="path19447"
       sodipodi:nodetypes="ccc" />
    <path
       style="fill:none;fill-opacity:1;stroke:#0000eb;stroke-width:20;stroke-dasharray:none;stroke-opacity:1;marker-end:url(#TriangleStart)"
       d="m 1782.297,4504.3363 c 0,0 45.9794,220.4809 96.3757,319.7335 49.7194,97.9196 174.5622,222.6992 174.5622,222.6992"
       id="path21359"
       sodipodi:nodetypes="csc" />
    <path
       style="fill:none;fill-opacity:1;stroke:#0000eb;stroke-width:20;stroke-dasharray:none;stroke-opacity:1;marker-start:url(#marker27121)"
       d="m 5042.8002,3100.0726 c 114.0821,292.0211 243.6005,569.5394 273.887,884.3558"
       id="path21361"
       sodipodi:nodetypes="cc" />
    <text
       xml:space="preserve"
       style="font-size:106.667px;font-family:sans-serif;-inkscape-font-specification:sans-serif;fill:#0000eb;fill-opacity:1;stroke:none;stroke-width:20;stroke-dasharray:none;stroke-opacity:1"
       x="1782.7688"
       y="4962.3462"
       id="text27227"><tspan
         sodipodi:role="line"
         id="tspan27225"
         x="1782.7688"
         y="4962.3462">s1</tspan></text>
    <text
       xml:space="preserve"
       style="font-size:106.667px;font-family:sans-serif;-inkscape-font-specification:sans-serif;fill:#0000eb;fill-opacity:1;stroke:none;stroke-width:20;stroke-dasharray:none;stroke-opacity:1"
       x="5242.7686"
       y="3522.3462"
       id="text27231"><tspan
         sodipodi:role="line"
         id="tspan27229"
         x="5242.7686"
         y="3522.3462">s2</tspan></text>
  </g>
</svg>
